<svg width="1280" height="320" viewBox="0 0 1280 320" fill="none" xmlns="http://www.w3.org/2000/svg">
  <defs>
    <linearGradient id="bg" x1="0" y1="0" x2="1280" y2="320" gradientUnits="userSpaceOnUse">
      <stop stop-color="#070B14"/>
      <stop offset="0.52" stop-color="#111827"/>
      <stop offset="1" stop-color="#24104F"/>
    </linearGradient>
    <linearGradient id="cyanViolet" x1="70" y1="40" x2="1190" y2="285" gradientUnits="userSpaceOnUse">
      <stop stop-color="#67E8F9"/>
      <stop offset="1" stop-color="#A78BFA"/>
    </linearGradient>
    <filter id="blur"><feGaussianBlur stdDeviation="38"/></filter>
    <pattern id="grid" width="32" height="32" patternUnits="userSpaceOnUse">
      <path d="M32 0H0V32" stroke="#94A3B8" stroke-opacity="0.07"/>
    </pattern>
  </defs>
  <rect width="1280" height="320" rx="24" fill="url(#bg)"/>
  <rect width="1280" height="320" rx="24" fill="url(#grid)"/>
  <circle cx="1080" cy="35" r="190" fill="#7C3AED" opacity="0.18" filter="url(#blur)"/>
  <circle cx="135" cy="330" r="170" fill="#0EA5E9" opacity="0.12" filter="url(#blur)"/>

  <g stroke="url(#cyanViolet)" stroke-width="2" stroke-linecap="round" opacity="0.6">
    <path d="M0 66H130V102H190"/><path d="M0 260H185V225H245"/>
    <path d="M1280 72H1165V110H1095"/><path d="M1280 264H1125V226H1050"/>
    <path d="M760 0V42H808V72"/><path d="M925 320V276H972V244"/>
  </g>
  <g fill="#67E8F9" opacity="0.9">
    <circle cx="130" cy="66" r="4"/><circle cx="190" cy="102" r="4"/><circle cx="185" cy="260" r="4"/>
    <circle cx="1165" cy="72" r="4"/><circle cx="1095" cy="110" r="4"/><circle cx="1125" cy="264" r="4"/>
  </g>

  <g transform="translate(955 86)">
    <rect x="0" y="0" width="174" height="148" rx="18" fill="#0B1220" stroke="#7DD3FC" stroke-opacity="0.55"/>
    <rect x="29" y="25" width="116" height="98" rx="10" fill="#172554" stroke="#A78BFA" stroke-opacity="0.8"/>
    <path d="M50 25V9M75 25V9M100 25V9M125 25V9M50 123V139M75 123V139M100 123V139M125 123V139M29 50H13M29 75H13M29 100H13M145 50H161M145 75H161M145 100H161" stroke="#67E8F9" stroke-width="4" stroke-linecap="round"/>
    <path d="M58 77H77L87 60L100 94L112 77H132" stroke="#E0F2FE" stroke-width="3" stroke-linecap="round" stroke-linejoin="round"/>
    <circle cx="87" cy="60" r="4" fill="#F0ABFC"/>
  </g>

  <g opacity="0.75" fill="#CBD5E1">
    <circle cx="105" cy="42" r="2"/><circle cx="270" cy="58" r="1.5"/><circle cx="850" cy="40" r="1.5"/><circle cx="1190" cy="280" r="2"/>
  </g>
  <text x="72" y="137" fill="#E0F2FE" font-family="Arial, Helvetica, sans-serif" font-size="42" font-weight="700">Brayan Carrillo</text>
  <text x="75" y="177" fill="#94A3B8" font-family="Arial, Helvetica, sans-serif" font-size="18">Mecatrónica · Automatización · Circuitos integrados</text>
  <rect x="75" y="211" width="206" height="36" rx="18" fill="#0F172A" stroke="#67E8F9" stroke-opacity="0.5"/>
  <text x="97" y="234" fill="#67E8F9" font-family="Arial, Helvetica, sans-serif" font-size="14" font-weight="600">&lt; engineer in progress /&gt;</text>
</svg>
